<?xml version="1.0" encoding="UTF-8"?>
<svg width="24px" height="24px" viewBox="0 0 24 24" version="1.1" xmlns="http://www.w3.org/2000/svg" xmlns:xlink="http://www.w3.org/1999/xlink">
    <title>icon_android-white</title>
    <g id="正稿" stroke="none" stroke-width="1" fill="none" fill-rule="evenodd">
        <g id="官网-全屏" transform="translate(-1410.000000, -5755.000000)">
            <g id="编组-27备份" transform="translate(0.000000, 5619.000000)">
                <g id="编组-2" transform="translate(1394.000000, 32.000000)">
                    <g id="编组-10备份-2" transform="translate(0.000000, 44.000000)">
                        <g id="编组-9备份" transform="translate(0.000000, 52.000000)">
                            <g id="编组-8" transform="translate(16.000000, 7.000000)">
                                <g id="icon/android" transform="translate(0.000000, 1.000000)">
                                    <rect id="矩形" x="0" y="0" width="24" height="24"></rect>
                                    <g id="编组" transform="translate(3.000000, 2.250000)" fill="#FFFFFF" fill-opacity="0.65" fill-rule="nonzero">
                                        <path d="M3.38231,1.9681 C4.92199,0.73647 6.87499,0 9,0 C11.125,0 13.078,0.73647 14.6177,1.9681 L16.0711,0.51472 L17.4853,1.92893 L16.0319,3.38231 C17.2635,4.92199 18,6.87499 18,9 L18,10 L0,10 L0,9 C0,6.87499 0.73647,4.92199 1.9681,3.38231 L0.51472,1.92893 L1.92893,0.51472 L3.38231,1.9681 Z M0,12 L18,12 L18,19 C18,19.5523 17.5523,20 17,20 L1,20 C0.44772,20 0,19.5523 0,19 L0,12 Z M6,7 C6.55228,7 7,6.55228 7,6 C7,5.44772 6.55228,5 6,5 C5.44772,5 5,5.44772 5,6 C5,6.55228 5.44772,7 6,7 Z M12,7 C12.5523,7 13,6.55228 13,6 C13,5.44772 12.5523,5 12,5 C11.4477,5 11,5.44772 11,6 C11,6.55228 11.4477,7 12,7 Z" id="形状"></path>
                                    </g>
                                </g>
                            </g>
                        </g>
                    </g>
                </g>
            </g>
        </g>
    </g>
</svg>