<?xml version="1.0" encoding="UTF-8"?>
<svg width="24px" height="24px" viewBox="0 0 24 24" version="1.1" xmlns="http://www.w3.org/2000/svg" xmlns:xlink="http://www.w3.org/1999/xlink">
    <title>icon_android</title>
    <g id="正稿" stroke="none" stroke-width="1" fill="none" fill-rule="evenodd">
        <g id="官网-全屏" transform="translate(-1419.000000, -5807.000000)">
            <g id="编组-27备份" transform="translate(0.000000, 5619.000000)">
                <g id="编组-2" transform="translate(1394.000000, 32.000000)">
                    <g id="编组-10备份-2" transform="translate(0.000000, 44.000000)">
                        <g id="编组-9备份-2" transform="translate(0.000000, 104.000000)">
                            <g id="编组-8" transform="translate(25.000000, 7.000000)">
                                <g id="icon/android" transform="translate(0.000000, 1.000000)">
                                    <rect id="矩形" x="0" y="0" width="24" height="24"></rect>
                                    <g id="编组" transform="translate(2.000000, 2.000000)" fill="#FFC14E" fill-rule="nonzero">
                                        <path d="M10,0 C4.4771525,0 0,4.4771525 0,10 C0,15.5228475 4.4771525,20 10,20 C15.5228475,20 20,15.5228475 20,10 C20,7.3478351 18.9464316,4.80429597 17.0710678,2.92893219 C15.195704,1.0535684 12.6521649,0 10,0 Z M15.0140039,8.98800781 C14.6243092,9.6128153 14.0162638,10.0704487 13.3080078,10.2719922 C13.1535631,10.3223889 12.9924378,10.349355 12.83,10.3519922 C12.5176033,10.3501603 12.2653229,10.0963962 12.2653229,9.78399414 C12.2653229,9.47159204 12.5176033,9.21782799 12.83,9.21599609 C12.8732228,9.21698563 12.9161648,9.20880463 12.9559961,9.19199219 C13.4108659,9.07894453 13.8030661,8.7916163 14.0479883,8.39199219 C14.19048,8.15906707 14.2652801,7.89105792 14.2640039,7.61800781 C14.2640039,6.72 13.4340039,5.98 12.4220117,5.98 C12.0718053,5.98073819 11.7275918,6.07091945 11.4220117,6.24199219 C10.9090938,6.51209217 10.5823879,7.03849764 10.5680078,7.61800781 L10.5680078,12.3880078 C10.5578966,13.3719813 10.0140424,14.2727847 9.14800781,14.74 C8.67259456,15.0073031 8.1353819,15.1452261 7.59,15.14 C5.94199219,15.14 4.59,13.9 4.59,12.3659961 C4.59291538,11.8847831 4.72631816,11.4133744 4.97599609,11.0019922 C5.3656908,10.3771847 5.97373618,9.91955132 6.68199219,9.71800781 C6.83661726,9.66835005 6.99763226,9.64140237 7.16,9.63800781 C7.36371966,9.6368132 7.55247762,9.74481099 7.65468387,9.92104099 C7.75689011,10.097271 7.75689011,10.3147407 7.65468387,10.4909707 C7.55247762,10.6672007 7.36371966,10.7751985 7.16,10.7740039 C7.11677715,10.7730144 7.07383524,10.7811954 7.03400391,10.7980078 C6.5830438,10.9193019 6.19361794,11.2045976 5.94201172,11.5980078 C5.79952004,11.8309329 5.72471987,12.0989421 5.72599609,12.3719922 C5.72599609,13.27 6.55599609,14.01 7.58,14.01 C7.9302064,14.0092618 8.27441993,13.9190806 8.58,13.7480078 C9.09213957,13.4773749 9.41801219,12.9510722 9.43199219,12.3719922 L9.43199219,7.62402344 C9.44305831,6.63926251 9.98748486,5.73801662 10.8540039,5.27001953 C11.3208103,4.99028571 11.8558186,4.84494026 12.4,4.85001953 C14.0480078,4.85001953 15.4,6.09001953 15.4,7.62402344 C15.3970846,8.10523641 15.2636818,8.5766451 15.0140039,8.98802734 L15.0140039,8.98800781 Z" id="形状"></path>
                                    </g>
                                </g>
                            </g>
                        </g>
                    </g>
                </g>
            </g>
        </g>
    </g>
</svg>