<?xml version="1.0" encoding="UTF-8"?>
<svg width="24px" height="24px" viewBox="0 0 24 24" version="1.1" xmlns="http://www.w3.org/2000/svg" xmlns:xlink="http://www.w3.org/1999/xlink">
    <title>icon_ios-white</title>
    <g id="正稿" stroke="none" stroke-width="1" fill="none" fill-rule="evenodd">
        <g id="官网-全屏" transform="translate(-1428.000000, -5703.000000)">
            <g id="编组-27备份" transform="translate(0.000000, 5619.000000)">
                <g id="编组-2" transform="translate(1394.000000, 32.000000)">
                    <g id="编组-10备份-2" transform="translate(0.000000, 44.000000)">
                        <g id="编组-7" transform="translate(34.000000, 8.000000)">
                            <rect id="矩形" x="0" y="0" width="24" height="24"></rect>
                            <path d="M12.1733979,7.372004 C11.2973979,7.372004 9.94137793,6.376004 8.51337793,6.412004 C6.62937793,6.436004 4.90137793,7.503994 3.92937793,9.195994 C1.97337793,12.592024 3.42537793,17.608024 5.33337793,20.368024 C6.26937793,21.712024 7.37337793,23.224024 8.83737793,23.176024 C10.2413779,23.116024 10.7693979,22.264024 12.4733979,22.264024 C14.1653979,22.264024 14.6453979,23.176024 16.1333979,23.140024 C17.6453979,23.116024 18.6053979,21.772024 19.5293979,20.416024 C20.5973979,18.856024 21.0413979,17.344024 21.0653979,17.260024 C21.0293979,17.248024 18.1253979,16.132024 18.0893979,12.772024 C18.0653979,9.963994 20.3813979,8.620004 20.4893979,8.560004 C19.1693979,6.628004 17.1413979,6.412004 16.4333979,6.364004 C14.5853979,6.220004 13.0373979,7.372004 12.1733979,7.372004 Z M15.2933979,4.540004 C16.0733979,3.604004 16.5893979,2.296004 16.4453979,1 C15.3293979,1.048 13.9853979,1.744004 13.1813979,2.680004 C12.4613979,3.508004 11.8373979,4.840004 12.0053979,6.112004 C13.2413979,6.208004 14.5133979,5.476004 15.2933979,4.540004 Z" id="形状" fill-opacity="0.65" fill="#FFFFFF" fill-rule="nonzero"></path>
                        </g>
                    </g>
                </g>
            </g>
        </g>
    </g>
</svg>