<svg xmlns="http://www.w3.org/2000/svg" xmlns:xlink="http://www.w3.org/1999/xlink" fill="none" version="1.1" width="16" height="16" viewBox="0 0 16 16"><defs><linearGradient x1="0.24575364589691162" y1="0.04174342378973961" x2="0.6602894067764282" y2="0.9486508369445801" id="master_svg0_73_4341"><stop offset="0%" stop-color="#F4D695" stop-opacity="1"/><stop offset="100%" stop-color="#F3C670" stop-opacity="1"/></linearGradient><linearGradient x1="0.24575364589691162" y1="0.04174342378973961" x2="0.6602894067764283" y2="0.9486508369445801" id="master_svg1_73_4341"><stop offset="0%" stop-color="#F4D695" stop-opacity="1"/><stop offset="100%" stop-color="#F3C670" stop-opacity="1"/></linearGradient><linearGradient x1="0.1789836585521698" y1="0.08176038414239883" x2="0.8071495294570923" y2="0.9099870324134827" id="master_svg2_73_4343"><stop offset="0%" stop-color="#FAEBC1" stop-opacity="0.4957386255264282"/><stop offset="100%" stop-color="#F3D28D" stop-opacity="0.014149912633001804"/></linearGradient><filter id="master_svg3_95_06242/88_6226" filterUnits="objectBoundingBox" color-interpolation-filters="sRGB" x="0" y="0" width="1" height="1"><feFlood flood-opacity="0" result="BackgroundImageFix"/><feBlend mode="normal" in="SourceGraphic" in2="BackgroundImageFix" result="shape"/><feGaussianBlur in="BackgroundImageFix" stdDeviation="0.5461359620094299"/><feComposite in2="SourceAlpha" operator="in" result="effect1_foregroundBlur"/><feBlend mode="normal" in="SourceGraphic" in2="effect1_foregroundBlur" result="shape"/></filter></defs><g><g style="opacity:0.752069354057312;"><ellipse cx="8" cy="8" rx="8" ry="8" fill="url(#master_svg0_73_4341)" fill-opacity="1"/></g><g><ellipse cx="8.017919540405273" cy="8.022192001342773" rx="6.399999618530273" ry="6.399999618530273" fill="url(#master_svg1_73_4341)" fill-opacity="1"/><ellipse cx="8.017919540405273" cy="8.022192001342773" rx="6.199214354157448" ry="6.199214354157448" stroke="url(#master_svg2_73_4343)" fill-opacity="0" fill="none" stroke-width="0.40157052874565125"/></g><g style="opacity:0.8718610405921936;"><path d="M5.684142415625,5.72508755078125L7.106293515625,7.83705455078125L5.969357515625,7.83705455078125C5.925369515625,7.83705455078125,5.889565515625,7.87243455078125,5.889048515625,7.91642455078125L5.881722515625,8.53966455078125C5.881196515625,8.58438455078125,5.917305515625,8.62092455078125,5.962030515625,8.62092455078125L7.406513515625,8.62092455078125C7.414883515625,8.62092455078125,7.422903515625,8.62425455078125,7.428793515625,8.63018455078125L7.438013515625,9.02227455078125L5.970295515625,9.02227455078125C5.925939515625,9.02227455078125,5.889981515625,9.05823455078125,5.889981515625,9.10258455078125L5.889981515625,9.711464550781251C5.889981515625,9.755814550781249,5.925939515625,9.79177455078125,5.970295515625,9.79177455078125L7.438013515625,9.79177455078125L7.438013515625,11.11960455078125C7.438013515625,11.16395455078125,7.473973515625,11.19991455078125,7.518323515625,11.19991455078125L8.426573515625,11.19991455078125C8.470933515625,11.19991455078125,8.506893515625,11.16395455078125,8.506893515625,11.11960455078125L8.506893515625,9.79177455078125L9.983823515625,9.79177455078125C10.028183515624999,9.79177455078125,10.064133515624999,9.755814550781249,10.064133515624999,9.711464550781251L10.064133515624999,9.10258455078125C10.064133515624999,9.05823455078125,10.028183515624999,9.02227455078125,9.983823515625,9.02227455078125L8.506893515625,9.02227455078125L8.497983515625,8.64325455078125C8.497783515625,8.63490455078125,8.501003515625,8.62684455078125,8.506893515625,8.62092455078125L9.975543515624999,8.62092455078125C10.019533515625,8.62092455078125,10.055343515625001,8.58553455078125,10.055853515625,8.54155455078125L10.063183515625,7.9183145507812505C10.063703515625,7.87358455078125,10.027593515625,7.83705455078125,9.982873515625,7.83705455078125L8.838613515625,7.83705455078125L10.311723515625001,5.72619155078125C10.348883515625001,5.67295115078125,10.310793515625,5.59991455078125,10.245863515625,5.59991455078125L9.226693515625,5.59991455078125C9.199753515625,5.59991455078125,9.174593515625,5.61342735078125,9.159723515625,5.63589625078125L8.040983515625,7.3259045507812495C8.008823515625,7.37449455078125,7.937253515625001,7.37373455078125,7.906123515625,7.32448455078125L6.839803515625,5.63732015078125C6.825083515625,5.61403335078125,6.799463515625,5.59991455078125,6.771913515625,5.59991455078125L5.750760515625,5.59991455078125C5.686445715625,5.59991455078125,5.648219415625,5.67174035078125,5.684142415625,5.72508755078125" fill="#323134" fill-opacity="1"/></g><g filter="url(#master_svg3_95_06242/88_6226)"><ellipse cx="13.1689453125" cy="2.0000000000000284" rx="2" ry="2" fill="#FFE2A4" fill-opacity="0.3240821659564972"/></g></g></svg>