<?xml version="1.0" encoding="UTF-8"?>
<svg width="44px" height="48px" viewBox="0 0 44 48" version="1.1" xmlns="http://www.w3.org/2000/svg" xmlns:xlink="http://www.w3.org/1999/xlink">
    <title>AE171657-45FA-4433-AF1D-0FF19EFBAC83@0.0x</title>
    <g id="-" stroke="none" stroke-width="1" fill="none" fill-rule="evenodd">
        <g id="顶部导航栏-下拉" transform="translate(-20.000000, -8.000000)" fill="#FFC14E">
            <g id="logo/text" transform="translate(20.000000, 8.000000)">
                <g id="编组" transform="translate(1.999986, 3.999987)">
                    <path d="M29.7577009,31.8922305 L29.7577009,26.4397761 L33.3778991,26.4397761 C33.3773573,26.4499697 33.3747842,26.4594925 33.3747842,26.4698202 L33.3747842,28.6179681 L30.9531477,28.6179681 C30.7378129,28.6179681 30.5632428,28.8905103 30.5632428,29.2266279 C30.5632428,29.5628795 30.7378129,29.8354218 30.9531477,29.8354218 L33.3747842,29.8354218 L33.3747842,31.8922305 L29.7577009,31.8922305 Z M38.4168692,31.8922305 L34.6042241,31.8922305 L34.6042241,29.8354218 L37.2242665,29.8354218 C37.4394659,29.8354218 37.614036,29.5628795 37.614036,29.2266279 C37.614036,28.8905103 37.4394659,28.6179681 37.2242665,28.6179681 L34.6042241,28.6179681 L34.6042241,26.4698202 C34.6042241,26.4594925 34.6016509,26.4499697 34.6011092,26.4397761 L38.4168692,26.4397761 L38.4168692,31.8922305 Z M39.4974708,38.7833108 L34.6042241,38.7833108 L34.6042241,36.1181106 L38.2141295,36.1181106 C38.5310373,36.1181106 38.7878139,35.8458366 38.7878139,35.5098532 C38.7878139,35.1740039 38.5310373,34.9017299 38.2141295,34.9017299 L34.6042241,34.9017299 L34.6042241,33.1098183 L39.0315892,33.1098183 C39.3709786,33.1098183 39.6461737,32.8371419 39.6461737,32.5010244 L39.6461737,25.8309822 C39.6461737,25.4948647 39.3709786,25.2221883 39.0315892,25.2221883 L29.142981,25.2221883 C28.8035916,25.2221883 28.528261,25.4948647 28.528261,25.8309822 L28.528261,32.4645423 C28.528261,32.4707121 28.5300216,32.4766136 28.530157,32.4827834 C28.5300216,32.4889531 28.528261,32.4947205 28.528261,32.5010244 C28.528261,32.8371419 28.8035916,33.1098183 29.142981,33.1098183 L33.3747842,33.1098183 L33.3747842,34.9017299 L29.8018513,34.9017299 C29.4850789,34.9017299 29.2283023,35.1740039 29.2283023,35.5098532 C29.2283023,35.8458366 29.4850789,36.1181106 29.8018513,36.1181106 L33.3747842,36.1181106 L33.3747842,38.7833108 L28.5045606,38.7833108 C28.2147389,38.7833108 27.9790895,39.0554507 27.9790895,39.3907635 C27.9790895,39.7274175 28.2147389,39.9996915 28.5045606,39.9996915 L39.4974708,39.9996915 C39.7751038,39.9996915 39.9999187,39.7274175 39.9999187,39.3907635 C39.9999187,39.0554507 39.7751038,38.7833108 39.4974708,38.7833108 L39.4974708,38.7833108 Z M12.0959933,26.0511218 L9.79475477,26.0511218 L9.79475477,25.8310225 C9.79475477,25.4947708 9.51942415,25.2222286 9.18003481,25.2222286 C8.84051003,25.2222286 8.56531484,25.4947708 8.56531484,25.8310225 L8.56531484,26.0511218 L4.19252829,26.0511218 L4.19252829,25.8310225 C4.19252829,25.4947708 3.9173331,25.2222286 3.57794376,25.2222286 C3.23841898,25.2222286 2.96322379,25.4947708 2.96322379,25.8310225 L2.96322379,26.0511218 L0.614719963,26.0511218 C0.27519519,26.0511218 0,26.323664 0,26.6599157 C0,26.9960332 0.27519519,27.2687096 0.614719963,27.2687096 L2.96322379,27.2687096 L2.96322379,27.6803396 C2.96322379,28.0165913 3.23841898,28.2891335 3.57794376,28.2891335 C3.9173331,28.2891335 4.19252829,28.0165913 4.19252829,27.6803396 L4.19252829,27.2687096 L8.56531484,27.2687096 L8.56531484,27.6803396 C8.56531484,28.0165913 8.84051003,28.2891335 9.18003481,28.2891335 C9.51942415,28.2891335 9.79475477,28.0165913 9.79475477,27.6803396 L9.79475477,27.2687096 L12.0959933,27.2687096 C12.4355181,27.2687096 12.7107132,26.9960332 12.7107132,26.6599157 C12.7107132,26.323664 12.4355181,26.0511218 12.0959933,26.0511218 M11.1997264,28.5213175 C11.5393866,28.5213175 11.8145818,28.7938598 11.8145818,29.129709 L11.8145818,34.6482871 C11.8145818,34.984807 11.5393866,35.2573492 11.1997264,35.2573492 L6.99406136,35.2573492 L6.99406136,36.1482083 L12.0960068,36.1482083 C12.4355316,36.1482083 12.7107268,36.4207505 12.7107268,36.756868 C12.7107268,37.0931197 12.4355316,37.365662 12.0960068,37.365662 L6.99406136,37.365662 L6.99406136,39.3912195 C6.99406136,39.7274712 6.71873074,40.0000134 6.3793414,40.0000134 C6.03981663,40.0000134 5.76462144,39.7274712 5.76462144,39.3912195 L5.76462144,37.365662 L0.615004368,37.365662 C0.275479594,37.365662 0.000284404477,37.0931197 0.000284404477,36.756868 C0.000284404477,36.4207505 0.275479594,36.1482083 0.615004368,36.1482083 L5.76462144,36.1482083 L5.76462144,35.2573492 L1.58631337,35.2573492 C1.24705946,35.2573492 0.971864271,34.984807 0.971864271,34.6482871 L0.971864271,29.129709 C0.971864271,28.7938598 1.24705946,28.5213175 1.58631337,28.5213175 Z M10.5852773,29.7387712 L2.20116877,29.7387712 L2.20116877,34.0400296 L10.5852773,34.0400296 L10.5852773,29.7387712 Z M9.37022014,31.2805529 C9.59652485,31.2805529 9.78003345,31.5530951 9.78003345,31.8893468 C9.78003345,32.2254643 9.59652485,32.4981407 9.37022014,32.4981407 L3.3711817,32.4981407 C3.144877,32.4981407 2.96136839,32.2254643 2.96136839,31.8893468 C2.96136839,31.5530951 3.144877,31.2805529 3.3711817,31.2805529 Z M26.0420377,25.2216921 C26.381427,25.2216921 26.6566222,25.4942343 26.6566222,25.8303518 L26.6566222,39.379269 C26.6566222,39.7152524 26.3833231,39.9872581 26.0440692,39.9885994 C22.6847106,39.9927572 18.1648463,39.9955739 14.6554304,39.9997317 L14.5657753,39.9997317 C14.2448045,39.991416 13.9827461,39.7471742 13.9505136,39.4362721 L13.9505136,25.8296812 C13.9505136,25.8257916 13.9515971,25.8223043 13.9517325,25.8184147 C13.9524097,25.7795184 13.9562017,25.7412928 13.9639213,25.7044084 L13.9796312,25.6546479 C13.9865382,25.6321149 13.9924971,25.6091795 14.0018419,25.5878536 C14.0096968,25.5698809 14.0203959,25.5536517 14.029876,25.5366178 L14.0614314,25.4828337 L14.0997583,25.4368287 C14.1130305,25.4215385 14.1256255,25.4058458 14.140252,25.392031 C14.1548786,25.3780819 14.1709948,25.3662789 14.1868402,25.3539394 C14.202821,25.3414658 14.218531,25.328858 14.2357307,25.3179939 C14.2526595,25.3072639 14.2705364,25.2985457 14.2885487,25.2895594 C14.3072381,25.2801706 14.3256567,25.2710501 14.3452941,25.2635391 C14.3638481,25.2565646 14.3829439,25.2513337 14.4023104,25.2461028 C14.4234376,25.2402013 14.4445648,25.2351046 14.4665046,25.2314832 C14.4860066,25.2283983 14.5056441,25.2269229 14.5256878,25.2255817 C14.53896,25.2247769 14.5515551,25.2216921 14.5649627,25.2216921 Z M25.4274532,26.4390116 L15.1795473,26.4390116 L15.1795473,38.8324408 C18.4101113,38.8129927 22.4366015,38.7922033 25.4274532,38.7727552 L25.4274532,26.4390116 Z M18.4696141,35.7089311 L18.5692965,35.7154536 L21.8800355,36.5730496 C22.2159036,36.6218711 22.4483027,36.9311636 22.3988705,37.2637939 C22.3576996,37.5421036 22.1323429,37.7485221 21.8632421,37.7800415 C21.8105595,37.7862113 21.7563873,37.7856748 21.7015378,37.7776273 L18.3906634,36.9200313 C18.0547953,36.8712097 17.8225316,36.5619172 17.8718284,36.2292869 C17.9211252,35.8966566 18.2339701,35.6663638 18.5692965,35.7154536 Z M19.2708411,34.0300239 C19.4286179,33.7322661 19.8007814,33.6177233 20.1007604,33.7739791 L21.3774657,34.6365377 C21.6781218,34.7927935 21.7937797,35.1608328 21.6360029,35.4584564 C21.5040934,35.7075268 21.2223975,35.8285076 20.9579014,35.7698949 C20.9061668,35.7583602 20.8552449,35.7401192 20.8060835,35.7145013 L19.5293783,34.8519426 C19.2288576,34.6956869 19.1130643,34.3276475 19.2708411,34.0300239 Z M19.4507025,26.6962251 L19.5379646,26.7107759 C19.7998876,26.7787774 19.9572581,27.0428697 19.8895427,27.302536 C19.8769477,27.3506869 19.7356934,27.8681416 19.3405066,28.5422544 L23.1745499,28.5422544 C23.3625277,28.5422544 23.5341184,28.6484815 23.6164602,28.8158697 C23.6986667,28.9832578 23.6774041,29.1825678 23.5614754,29.3291665 C22.8247324,30.2607996 21.9907501,31.0741343 21.0695504,31.764208 C22.1597676,32.3405437 23.3308369,32.7528443 24.5631209,32.9874291 C24.8296485,33.0381284 25.0042187,33.2932344 24.9528904,33.5573268 C24.9076566,33.7903021 24.7018019,33.9521911 24.4708926,33.9521911 C24.4400144,33.9521911 24.4088653,33.9493745 24.3774454,33.9433388 C22.8818841,33.6585912 21.469071,33.1314795 20.1701551,32.3810495 C19.7904074,32.6187192 19.3983356,32.838282 18.9933978,33.0371895 C18.0681352,33.4917396 17.083554,33.8376483 16.0671465,34.0655268 C16.0305803,34.0737085 15.9941494,34.0775981 15.9581248,34.0775981 C15.7335807,34.0775981 15.5309764,33.9242931 15.4792419,33.6981581 C15.4193815,33.4359435 15.5854195,33.1753384 15.8501866,33.1160551 C16.7906174,32.9052104 17.701118,32.585322 18.5564983,32.165108 C18.7905226,32.0501628 19.018317,31.9255606 19.2432674,31.7965322 C18.6698538,31.398583 18.1273184,30.9552995 17.6224327,30.4708395 C17.2016495,30.7883137 16.7081401,31.0825842 16.1293092,31.3253507 C16.0667403,31.3516392 16.0017335,31.3639787 15.9378102,31.3639787 C15.7464466,31.3639787 15.5644278,31.2525207 15.4850654,31.0668915 C15.379294,30.8194307 15.4960353,30.5337442 15.7460403,30.4288584 C18.2944399,29.3600153 18.9130873,27.1509746 18.938142,27.0574894 C19.0077534,26.7983596 19.2760416,26.6427745 19.5379646,26.7107759 Z M22.1129086,29.5157346 L18.6437157,29.5157346 C18.5554149,29.6179379 18.4610197,29.7204095 18.3609364,29.8224787 C18.911733,30.3444937 19.5093887,30.8146022 20.1452359,31.2252933 C20.8546219,30.7302375 21.513086,30.1607422 22.1129086,29.5157346 Z M18.025786,21.6816741 L18.0363496,21.6816741 C18.6100341,21.6816741 19.0749677,21.2310138 19.0749677,20.674931 L19.0749677,4.46483742 C19.0749677,3.90875468 18.6100341,3.45809428 18.0363496,3.45809428 L18.025786,3.45809428 C17.452237,3.45809428 16.9871679,3.90875468 16.9871679,4.46483742 L16.9871679,20.674931 C16.9871679,21.2310138 17.452237,21.6816741 18.025786,21.6816741 M22.0114981,2.05627219 L22.0220617,2.05627219 C22.5957461,2.05627219 23.0606797,1.60561179 23.0606797,1.04952905 L23.0606797,1.00701139 C23.0606797,0.450928649 22.5957461,0.000268250237 22.0220617,0.000268250237 L22.0114981,0.000268250237 C21.437949,0.000268250237 20.97288,0.450928649 20.97288,1.00701139 L20.97288,1.04952905 C20.97288,1.60561179 21.437949,2.05627219 22.0114981,2.05627219 M14.0400739,2.05627219 L14.0506375,2.05627219 C14.6241866,2.05627219 15.0892556,1.60561179 15.0892556,1.04952905 L15.0892556,1.00701139 C15.0892556,0.450928649 14.6241866,0.000268250237 14.0506375,0.000268250237 L14.0400739,0.000268250237 C13.4665249,0.000268250237 13.0014559,0.450928649 13.0014559,1.00701139 L13.0014559,1.04952905 C13.0014559,1.60561179 13.4665249,2.05627219 14.0400739,2.05627219 M22.0114981,21.6816741 L22.0220617,21.6816741 C22.5957461,21.6816741 23.0606797,21.2310138 23.0606797,20.674931 L23.0606797,4.46483742 C23.0606797,3.90875468 22.5957461,3.45809428 22.0220617,3.45809428 L22.0114981,3.45809428 C21.437949,3.45809428 20.97288,3.90875468 20.97288,4.46483742 L20.97288,20.674931 C20.97288,21.2310138 21.437949,21.6816741 22.0114981,21.6816741 M18.025786,2.05627219 L18.0363496,2.05627219 C18.6100341,2.05627219 19.0749677,1.60561179 19.0749677,1.04952905 L19.0749677,1.00701139 C19.0749677,0.450928649 18.6100341,0.000268250237 18.0363496,0.000268250237 L18.025786,0.000268250237 C17.452237,0.000268250237 16.9871679,0.450928649 16.9871679,1.00701139 L16.9871679,1.04952905 C16.9871679,1.60561179 17.452237,2.05627219 18.025786,2.05627219 M26.0078279,3.45809428 L25.9972643,3.45809428 C25.4237153,3.45809428 24.9586462,3.90875468 24.9586462,4.46483742 L24.9586462,20.674931 C24.9586462,21.2310138 25.4237153,21.6816741 25.9972643,21.6816741 L26.0078279,21.6816741 C26.5813769,21.6816741 27.046446,21.2310138 27.046446,20.674931 L27.046446,4.46483742 C27.046446,3.90875468 26.5813769,3.45809428 26.0078279,3.45809428 M14.0506511,21.6816741 C14.6242001,21.6816741 15.0892691,21.2310138 15.0892691,20.674931 L15.0892691,4.46483742 C15.0892691,3.90875468 14.6242001,3.45809428 14.0506511,3.45809428 L14.0400875,3.45809428 C13.4665385,3.45809428 13.0014694,3.90875468 13.0014694,4.46483742 L13.0014694,20.674931 C13.0014694,21.2310138 13.4665385,21.6816741 14.0400875,21.6816741 L14.0506511,21.6816741 Z M28.7685557,21.6665717 C29.3368229,21.7620687 29.8762434,21.3857137 29.9732118,20.8261437 L33.1032862,2.75962432 C33.1737102,2.35322521 33.5313827,2.05600394 33.949999,2.05600394 C34.3686153,2.05600394 34.7262878,2.35322521 34.7967117,2.75962432 L37.9269216,20.8261437 C38.02389,21.3857137 38.563175,21.7620687 39.1314423,21.6665717 C39.6998449,21.5710746 40.0818949,21.0399391 39.9849266,20.4803691 L36.8547167,2.41384976 C36.6132438,1.01961915 35.3862416,0 33.949999,0 C32.5138918,0 31.2868896,1.01961915 31.0452813,2.41384976 L27.9150714,20.4803691 C27.818103,21.0399391 28.2002885,21.5710746 28.7685557,21.6665717 M5.21666881,2.76763159 C5.28831165,2.3565381 5.65018249,2.05609783 6.0736743,2.05609783 C6.49716611,2.05609783 6.85903695,2.3565381 6.93067979,2.76763159 L8.8891432,14.0181807 L3.25820541,14.0181807 L5.21666881,2.76763159 Z M0.86771806,21.6663973 C1.43584986,21.7624309 1.97554121,21.3864782 2.07291589,20.8269082 L2.90026206,16.0741846 L9.24708655,16.0741846 L10.0744327,20.8269082 C10.1718074,21.3864782 10.7114987,21.7624309 11.2796305,21.6663973 C11.8478978,21.5704978 12.2295415,21.0390941 12.1321668,20.4795241 L8.9884139,2.42024753 C8.74504493,1.02212729 7.51411527,9.3887583e-05 6.0736743,9.3887583e-05 C4.63323334,9.3887583e-05 3.40230368,1.02212729 3.1589347,2.42024753 L0.0151817819,20.4795241 C-0.0821928939,21.0390941 0.299450828,21.5704978 0.86771806,21.6663973 L0.86771806,21.6663973 Z M26.0078279,0.000281662749 L25.9972643,0.000281662749 C25.4237153,0.000281662749 24.9586462,0.450942061 24.9586462,1.0070248 L24.9586462,1.04954247 C24.9586462,1.60562521 25.4237153,2.05628561 25.9972643,2.05628561 L26.0078279,2.05628561 C26.5813769,2.05628561 27.046446,1.60562521 27.046446,1.04954247 L27.046446,1.0070248 C27.046446,0.450942061 26.5813769,0.000281662749 26.0078279,0.000281662749" id="形状结合"></path>
                </g>
            </g>
        </g>
    </g>
</svg>