<svg xmlns="http://www.w3.org/2000/svg" xmlns:xlink="http://www.w3.org/1999/xlink" fill="none" version="1.1" width="82" height="48" viewBox="0 0 82 48"><g><g><g><rect x="50" y="2" width="32" height="16" rx="8" fill="#FFE4A0" fill-opacity="0.09000000357627869"/></g><g><g><path d="M82,10C82,5.58172,78.4183,2,74,2L58,2C53.58172,2,50,5.58172,50,10C50,14.4183,53.58172,18,58,18L74,18C78.4183,18,82,14.4183,82,10ZM58.00027,2.727295L74.0003,2.727295C78.01689999999999,2.727295,81.273,5.98341,81.273,10.00002C81.273,14.0166,78.01689999999999,17.2727,74.0003,17.2727L58.00027,17.2727C53.98365,17.2727,50.727539,14.0166,50.727539,10.00002C50.727539,5.98341,53.98365,2.727295,58.00027,2.727295Z" fill-rule="evenodd" fill="#FFE4A0" fill-opacity="0.3199999928474426"/></g><g><g><path d="M58.063947890625,6.20654296875L56.027587890625,6.20654296875L56.027587890625,13.27272296875L58.267587890625,13.27272296875Q58.970137890625,13.27272296875,59.433407890625,13.14036296875Q59.896677890625,13.007992968749999,60.171587890625,12.748362968750001Q60.446497890625,12.48872296875,60.558497890625,12.11199296875C60.633167890625,11.86084296875,60.670497890625,11.575752968749999,60.670497890625,11.256722968750001C60.670497890625,11.04630296875,60.650137890625004,10.85284296875,60.609407890625,10.67636296875Q60.548317890625,10.41163296875,60.400677890625,10.19781296875C60.302257890625,10.05527296875,60.171587890625,9.93478296875,60.008677890625,9.83636296875C59.845767890625,9.73793296875,59.645527890625,9.66496296875,59.407947890625,9.61745296875L59.407947890625,9.57672296875Q59.967947890625,9.40363296875,60.202137890624996,9.016722968749999Q60.436317890625,8.62981296875,60.436317890625,8.07999296875Q60.436317890625,7.60145296875,60.324317890625,7.25018296875C60.249647890625,7.01599796875,60.122377890625,6.82084596875,59.942497890625,6.66472496875Q59.672677890625,6.43054296875,59.214497890625,6.31854296875Q58.756317890625,6.20654296875,58.063947890625,6.20654296875ZM57.635967890625,9.30192296875Q58.145057890625,9.30192296875,58.506507890625,9.25101296875Q58.867967890625,9.20010296875,59.097057890625,9.06774296875C59.249787890625,8.97950296875,59.361787890625,8.859012968750001,59.433057890625,8.70628296875Q59.539967890625,8.47719296875,59.539967890625,8.13101296875Q59.539967890625,7.74410296875,59.433057890625,7.51501296875Q59.326147890625,7.2859229687500005,59.097057890625,7.16883196875Q58.867967890625,7.05174196875,58.506507890625,7.01610496875Q58.145057890625,6.98046896875,57.635967890625,6.98046896875L56.943603890625,6.98046896875L56.943603890625,9.30192296875L57.635967890625,9.30192296875ZM57.890507890625,12.48865296875Q58.430147890625,12.48865296875,58.791607890625,12.43775296875C59.032577890625,12.40381296875,59.224327890625,12.34102296875,59.366877890625,12.24938296875C59.509417890625,12.15775296875,59.609537890625,12.03047296875,59.667237890625,11.86756296875Q59.753787890625,11.62320296875,59.753787890625,11.24647296875C59.753787890625,11.02926296875,59.723237890625,10.84429296875,59.662147890625,10.691562968749999C59.601057890625,10.53884296875,59.499237890625,10.41326296875,59.356697890625,10.31484296875C59.214147890625,10.21641296875,59.024087890625,10.14344296875,58.786507890625,10.09593296875Q58.430147890625,10.02465296875,57.890507890625,10.02466296875L56.943603890625,10.02466296875L56.943603890625,12.48865296875L57.890507890625,12.48865296875Z" fill-rule="evenodd" fill="#FFE4A0" fill-opacity="0.8799999952316284"/></g><g><path d="M66.68286537628174,10.254064843025208C66.69304537628173,10.142064843025206,66.69813537628174,10.048724843025207,66.69813537628174,9.974064843025207Q66.69813537628174,9.576964843025207,66.61667537628173,9.164604843025208Q66.53522537628174,8.752244843025208,66.30104537628173,8.421332843025208Q66.06686537628174,8.090423843025208,65.63413537628173,7.8816958430252075Q65.20140537628174,7.672968984025207,64.49886537628174,7.672968984025207Q63.908315376281735,7.6729689890252075,63.44504537628174,7.810423843025207Q62.98177037628174,7.947877843025207,62.661042376281735,8.278786843025207Q62.34031537628174,8.609695843025207,62.17231537628174,9.154424843025208Q62.00431537628174,9.699154843025207,62.00431537628174,10.523874843025208Q62.00431538000703,11.348604843025207,62.17231537628174,11.893334843025208Q62.34031537628174,12.438064843025208,62.666133376281735,12.768964843025207Q62.99195137628174,13.099874843025209,63.46540537628174,13.237334843025208C63.78104537628174,13.328964843025208,64.14249537628174,13.374784843025207,64.54976537628174,13.374784843025207Q64.84504537628173,13.374784843025207,65.12504537628173,13.349334843025208Q65.40504537628173,13.323874843025209,65.64940537628173,13.278064843025208Q65.89376537628173,13.232244843025207,66.08722537628174,13.171154843025207C66.21619537628173,13.130424843025207,66.32140537628175,13.089694843025207,66.40286537628174,13.048964843025207L66.40286537628174,12.244604843025208C66.19243537628174,12.346424843025208,65.92940537628174,12.431274843025207,65.61376537628173,12.499154843025208Q65.14031537628173,12.600964843025206,64.68213537628174,12.600964843025206Q64.18322537628174,12.600964843025206,63.84722537628174,12.494054843025207C63.62322537628174,12.422784843025209,63.44334537628174,12.315874843025208,63.307585376281736,12.173334843025208Q63.10395537628174,11.959514843025207,63.01231537628174,11.628604843025208Q62.92067937628174,11.297694843025207,62.92067937628174,10.849694843025208L66.64722537628174,10.615514843025208C66.66080537628174,10.486544843025207,66.67267537628175,10.366064843025207,66.68286537628174,10.254064843025208ZM65.79160537628174,9.378174843025207C65.81875537628174,9.571624843025207,65.83233537628173,9.773564843025207,65.83233537628173,9.983984843025208L62.92033137628174,10.197804843025207C62.92711937628174,9.919504843025209,62.95427037628174,9.668354843025208,63.00178537628174,9.444354843025208Q63.07305537628174,9.108354843025207,63.24614537628174,8.874174843025207Q63.41923537628174,8.639988843025208,63.71960537628174,8.517806843025207Q64.01996537628173,8.395624843025207,64.49851537628174,8.395624843025207Q64.94651537628174,8.395624843025207,65.21123537628173,8.522897843025207Q65.47596537628174,8.650170843025208,65.61342537628174,8.869074843025208Q65.75087537628174,9.087984843025207,65.79160537628174,9.378174843025207Z" fill-rule="evenodd" fill="#FFE4A0" fill-opacity="0.8799999952316284"/></g><g><path d="M69.92576625,12.60070244140625C70.04795625,12.60070244140625,70.15485625,12.59561244140625,70.24649625,12.585432441406251C70.33813625,12.57525244140625,70.43146625,12.55998244140625,70.52649625,12.53961244140625L70.52649625,13.28289244140625C70.41788625,13.29646244140625,70.31607625,13.30834244140625,70.22104625,13.31852244140625C70.12601625,13.32870244140625,70.02079625,13.333802441406249,69.90540625,13.333802441406249C69.59995625,13.333802441406249,69.34370625,13.31173244140625,69.13667625,13.26761244140625C68.92964625,13.22349244140625,68.75995625,13.136952441406251,68.62758625,13.00798244140625C68.49522625,12.87901244140625,68.40019425,12.70083244140625,68.34249725,12.47343244140625C68.28480025,12.24604244140625,68.25595125,11.95246244140625,68.25595125,11.59270244140625L68.25595125,8.50761244140625L67.44140625,8.50761244140625L67.44140625,7.7745224414062495L68.25595125,7.7745224414062495L68.25595125,6.47125244140625L69.13158625,6.47125244140625L69.13158625,7.7745224414062495L70.49595625,7.7745224414062495L70.49595625,8.50761244140625L69.13158625,8.50761244140625L69.13158625,11.54180244140625C69.13158625,11.759012441406249,69.14176625,11.93549244140625,69.16213625,12.07125244140625C69.18249625,12.207012441406249,69.22152625,12.31392244140625,69.27922625,12.391982441406249C69.33692625,12.47004244140625,69.41667625,12.524342441406251,69.51849625,12.554892441406249C69.62031625,12.585432441406251,69.75607625,12.60070244140625,69.92576625,12.60070244140625Z" fill="#FFE4A0" fill-opacity="0.8799999952316284"/></g><g><path d="M74.89959109558106,7.800241843025208Q74.47704109558106,7.672968984025207,73.82540109558106,7.672968984025207Q73.53013109558105,7.672968984025207,73.20431109558106,7.693332643025207Q72.87850109558106,7.713696243025208,72.57304109558106,7.754423543025207L72.57304109558106,8.528241843025208Q72.86831109558105,8.467150843025207,73.18904109558106,8.436604843025208C73.40286109558106,8.416241843025208,73.60140109558105,8.406059843025208,73.78468109558105,8.406059843025208Q74.20213109558105,8.406059843025208,74.46686109558105,8.487514843025208Q74.73159109558105,8.568968843025207,74.87922109558106,8.716604843025207Q75.02686109558105,8.864244843025208,75.08286109558105,9.072964843025208C75.12019109558105,9.212124843025208,75.13886109558105,9.363154843025207,75.13886109558105,9.526064843025207L75.13886109558105,9.984244843025207L73.45886109558106,9.984244843025207Q72.97013109558105,9.984244843025207,72.56795109558105,10.075874843025208C72.29983109558106,10.136964843025208,72.07073909558106,10.235394843025208,71.88067809558106,10.371154843025208C71.69061809558106,10.506904843025207,71.54298109558106,10.686784843025208,71.43776909558106,10.910784843025208Q71.27995109558105,11.246784843025207,71.27995109558105,11.735514843025207Q71.27995109558105,12.519514843025208,71.73304209558106,12.947154843025206Q72.18613309558106,13.374784843025207,73.17377109558106,13.374784843025207Q73.47922109558105,13.374784843025207,73.78468109558105,13.313694843025207C73.98831109558105,13.272964843025207,74.17668109558106,13.211874843025207,74.34977109558105,13.130424843025207C74.52286109558105,13.048964843025207,74.67728109558105,12.950544843025208,74.81304109558106,12.835154843025208C74.94880109558106,12.719754843025207,75.05740109558106,12.587394843025209,75.13886109558105,12.438064843025208L75.27122109558105,13.272964843025207L76.01450109558105,13.272964843025207L76.01450109558105,9.373334843025207Q76.01450109558105,9.006784843025208,75.91777109558106,8.691154843025208C75.85328109558105,8.480726843025208,75.73789109558105,8.300847843025208,75.57159109558106,8.151514843025208Q75.32213109558106,7.927514843025207,74.89959109558106,7.800241843025208ZM74.43638109558105,12.361554843025207C74.11056109558106,12.548214843025207,73.71687109558106,12.641554843025208,73.25529109558106,12.641554843025208Q72.67493109558106,12.641544843025208,72.43056109558106,12.412454843025207C72.26765609558106,12.259734843025207,72.18620109558105,12.030644843025208,72.18620109558105,11.725184843025207Q72.18620109558105,11.409544843025207,72.26765609558106,11.205914843025207Q72.34911109558105,11.002274843025207,72.51202109558105,10.885184843025208C72.62062109558106,10.807124843025207,72.75978109558106,10.754514843025207,72.92947109558105,10.727364843025207Q73.18402109558106,10.686644843025208,73.52002109558106,10.686644843025208L75.13893109558106,10.686644843025208L75.13893109558106,11.592824843025207Q74.92511109558106,12.081544843025208,74.43638109558105,12.361554843025207Z" fill-rule="evenodd" fill="#FFE4A0" fill-opacity="0.8799999952316284"/></g></g></g></g><g><g><g><path d="M4.072886410140992,24.82678664855957C3.975516410140991,25.38638664855957,3.435826410140991,25.76228664855957,2.867690410140991,25.66628664855957C2.2994234101409914,25.57038664855957,1.9177797101409912,25.038986648559572,2.0151544101409913,24.47938664855957L5.158906410140991,6.42013664855957C5.402276410140991,5.02201664855957,6.633206410140991,3.9999866485595703,8.073646410140991,3.9999866485595703C9.51408641014099,3.9999866485595703,10.745016410140991,5.02201664855957,10.988386410140992,6.42013664855957L14.13218641014099,24.47938664855957C14.229486410140991,25.038986648559572,13.84788641014099,25.57038664855957,13.279586410140992,25.66628664855957C12.71148641014099,25.76228664855957,12.17178641014099,25.38638664855957,12.074386410140992,24.82678664855957L11.247056410140992,20.07408664855957L4.900236410140991,20.07408664855957L4.072886410140992,24.82678664855957ZM31.973586410140992,24.82608664855957C31.87658641014099,25.38568664855957,31.33718641014099,25.76208664855957,30.76888641014099,25.66658664855957C30.200586410140993,25.57108664855957,29.81848641014099,25.03988664855957,29.915386410140993,24.48038664855957L33.04558641014099,6.41383664855957C33.28718641014099,5.01960664855957,34.514186410140994,3.9999866485595703,35.95038641014099,3.9999866485595703C37.38658641014099,3.9999866485595703,38.61358641014099,5.01960664855957,38.85508641014099,6.41383664855957L41.98528641014099,24.48038664855957C42.08228641014099,25.03988664855957,41.700186410140994,25.57108664855957,41.13178641014099,25.66658664855957C40.56348641014099,25.76208664855957,40.02418641014099,25.38568664855957,39.927286410140994,24.82608664855957L36.79708641014099,6.75960664855957C36.72658641014099,6.35321664855957,36.36898641014099,6.05598664855957,35.95038641014099,6.05598664855957C35.53168641014099,6.05598664855957,35.174086410140994,6.35321664855957,35.10358641014099,6.75960664855957L31.973586410140992,24.82608664855957ZM16.05108641014099,6.056236648559571L16.04058641014099,6.056236648559571C15.466986410140992,6.056236648559571,15.001986410140992,5.605576648559571,15.001986410140992,5.04948664855957L15.001986410140992,5.00697664855957C15.001986410140992,4.45089164855957,15.466986410140992,4.00023078955957,16.04058641014099,4.00023078955957L16.05108641014099,4.00023078955957C16.624686410140992,4.00023078955957,17.08978641014099,4.45089164855957,17.08978641014099,5.00697664855957L17.08978641014099,5.04948664855957C17.08978641014099,5.605576648559571,16.624686410140992,6.056236648559571,16.05108641014099,6.056236648559571ZM20.03648641014099,6.056236648559571L20.02588641014099,6.056236648559571C19.452386410140992,6.056236648559571,18.987286410140992,5.605576648559571,18.987286410140992,5.04948664855957L18.987286410140992,5.00697664855957C18.987286410140992,4.45089164855957,19.452386410140992,4.00023078955957,20.02588641014099,4.00023078955957L20.03648641014099,4.00023078955957C20.61018641014099,4.00023078955957,21.07508641014099,4.45089164855957,21.07508641014099,5.00697664855957L21.07508641014099,5.04948664855957C21.07508641014099,5.605576648559571,20.61018641014099,6.056236648559571,20.03648641014099,6.056236648559571ZM24.02178641014099,6.056236648559571L24.01128641014099,6.056236648559571C23.43768641014099,6.056236648559571,22.97268641014099,5.605576648559571,22.97268641014099,5.04948664855957L22.97268641014099,5.00697664855957C22.97268641014099,4.45089164855957,23.43768641014099,4.00023078955957,24.01128641014099,4.00023078955957L24.02178641014099,4.00023078955957C24.595486410140992,4.00023078955957,25.060486410140992,4.45089164855957,25.060486410140992,5.00697664855957L25.060486410140992,5.04948664855957C25.060486410140992,5.605576648559571,24.595486410140992,6.056236648559571,24.02178641014099,6.056236648559571ZM27.99758641014099,4.00023078955957L28.00818641014099,4.00023078955957C28.581686410140993,4.00023078955957,29.046786410140992,4.45089164855957,29.046786410140992,5.00697664855957L29.046786410140992,5.04948664855957C29.046786410140992,5.605576648559571,28.581686410140993,6.056236648559571,28.00818641014099,6.056236648559571L27.99758641014099,6.056236648559571C27.42408641014099,6.056236648559571,26.95898641014099,5.605576648559571,26.95898641014099,5.04948664855957L26.95898641014099,5.00697664855957C26.95898641014099,4.45089164855957,27.42408641014099,4.00023078955957,27.99758641014099,4.00023078955957ZM8.073266410140992,6.056136648559571C7.6497764101409915,6.056136648559571,7.287906410140991,6.356576648559571,7.2162664101409915,6.76767664855957L5.257796410140991,18.01818664855957L10.888736410140991,18.01818664855957L8.93027641014099,6.76767664855957C8.858626410140992,6.356576648559571,8.496756410140991,6.056136648559571,8.073266410140992,6.056136648559571ZM16.05108641014099,25.68158664855957C16.624686410140992,25.68158664855957,17.08978641014099,25.23088664855957,17.08978641014099,24.67478664855957L17.08978641014099,8.46473664855957C17.08978641014099,7.90865664855957,16.624686410140992,7.45799664855957,16.05108641014099,7.45799664855957L16.04058641014099,7.45799664855957C15.466986410140992,7.45799664855957,15.001986410140992,7.90865664855957,15.001986410140992,8.46473664855957L15.001986410140992,24.67478664855957C15.001986410140992,25.23088664855957,15.466986410140992,25.68158664855957,16.04058641014099,25.68158664855957L16.05108641014099,25.68158664855957ZM20.03648641014099,25.68158664855957L20.02588641014099,25.68158664855957C19.452386410140992,25.68158664855957,18.987286410140992,25.23088664855957,18.987286410140992,24.67478664855957L18.987286410140992,8.46473664855957C18.987286410140992,7.90865664855957,19.452386410140992,7.45799664855957,20.02588641014099,7.45799664855957L20.03648641014099,7.45799664855957C20.61018641014099,7.45799664855957,21.07508641014099,7.90865664855957,21.07508641014099,8.46473664855957L21.07508641014099,24.67478664855957C21.07508641014099,25.23088664855957,20.61018641014099,25.68158664855957,20.03648641014099,25.68158664855957ZM24.02178641014099,25.68158664855957L24.01128641014099,25.68158664855957C23.43768641014099,25.68158664855957,22.97268641014099,25.23088664855957,22.97268641014099,24.67478664855957L22.97268641014099,8.46473664855957C22.97268641014099,7.90865664855957,23.43768641014099,7.45799664855957,24.01128641014099,7.45799664855957L24.02178641014099,7.45799664855957C24.595486410140992,7.45799664855957,25.060486410140992,7.90865664855957,25.060486410140992,8.46473664855957L25.060486410140992,24.67478664855957C25.060486410140992,25.23088664855957,24.595486410140992,25.68158664855957,24.02178641014099,25.68158664855957ZM27.99758641014099,7.45799664855957L28.00818641014099,7.45799664855957C28.581686410140993,7.45799664855957,29.046786410140992,7.90865664855957,29.046786410140992,8.46473664855957L29.046786410140992,24.67478664855957C29.046786410140992,25.23088664855957,28.581686410140993,25.68158664855957,28.00818641014099,25.68158664855957L27.99758641014099,25.68158664855957C27.42408641014099,25.68158664855957,26.95898641014099,25.23088664855957,26.95898641014099,24.67478664855957L26.95898641014099,8.46473664855957C26.95898641014099,7.90865664855957,27.42408641014099,7.45799664855957,27.99758641014099,7.45799664855957ZM28.04168641014099,29.22168664855957L16.56458641014099,29.22168664855957C16.551186410140993,29.22168664855957,16.538586410140994,29.22478664855957,16.52538641014099,29.22558664855957C16.50528641014099,29.22688664855957,16.485686410140993,29.22838664855957,16.466186410140992,29.23148664855957C16.444186410140993,29.23508664855957,16.42308641014099,29.240186648559572,16.401986410140992,29.24608664855957C16.38258641014099,29.25128664855957,16.363486410140993,29.25658664855957,16.34498641014099,29.26348664855957C16.32528641014099,29.27098664855957,16.30688641014099,29.28018664855957,16.28818641014099,29.28948664855957C16.270186410140994,29.29848664855957,16.25228641014099,29.30728664855957,16.23538641014099,29.31798664855957C16.21818641014099,29.32878664855957,16.202486410140992,29.34148664855957,16.186486410140994,29.35388664855957C16.17068641014099,29.36628664855957,16.154586410140993,29.37808664855957,16.139886410140992,29.39198664855957C16.12528641014099,29.40578664855957,16.11268641014099,29.421486648559572,16.09938641014099,29.436786648559572C16.08638641014099,29.451986648559572,16.072786410140992,29.46648664855957,16.06108641014099,29.48278664855957C16.04918641014099,29.49988664855957,16.03988641014099,29.51838664855957,16.029586410140993,29.53658664855957C16.02008641014099,29.55358664855957,16.00938641014099,29.56988664855957,16.00148641014099,29.58778664855957C15.992186410140992,29.60918664855957,15.986186410140991,29.63208664855957,15.979286410140991,29.65458664855957C15.974186410140991,29.67128664855957,15.96738641014099,29.68708664855957,15.96358641014099,29.70438664855957C15.955886410140991,29.74128664855957,15.952086410140991,29.77948664855957,15.95138641014099,29.81838664855957C15.951286410140991,29.82228664855957,15.950186410140992,29.82578664855957,15.950186410140992,29.82968664855957L15.950186410140992,43.43628664855957C15.982386410140991,43.74718664855957,16.244486410140993,43.99138664855957,16.56548641014099,43.99968664855957L16.65508641014099,43.99968664855957C20.16448641014099,43.99558664855957,24.68438641014099,43.99268664855957,28.043786410140992,43.98858664855957C28.38298641014099,43.98718664855957,28.656286410140993,43.71518664855957,28.656286410140993,43.37928664855957L28.656286410140993,29.83098664855957L28.65618641014099,29.83068664855957L28.656286410140993,29.83028664855957C28.656286410140993,29.49418664855957,28.38108641014099,29.22168664855957,28.04168641014099,29.22168664855957ZM11.794736410140992,30.051086648559572L14.095986410140991,30.051086648559572C14.43548641014099,30.051086648559572,14.71068641014099,30.32358664855957,14.71068641014099,30.65988664855957C14.71068641014099,30.99598664855957,14.43548641014099,31.26868664855957,14.095986410140991,31.26868664855957L11.794736410140992,31.26868664855957L11.794736410140992,31.68028664855957C11.794736410140992,32.01648664855957,11.519406410140991,32.289086648559575,11.180016410140992,32.289086648559575C10.840496410140991,32.289086648559575,10.565306410140991,32.01648664855957,10.565306410140991,31.68028664855957L10.565306410140991,31.26868664855957L6.192516410140991,31.26868664855957L6.192516410140991,31.68028664855957C6.192516410140991,32.01648664855957,5.917316410140991,32.289086648559575,5.577926410140991,32.289086648559575C5.238406410140991,32.289086648559575,4.963206410140991,32.01648664855957,4.963206410140991,31.68028664855957L4.963206410140991,31.26868664855957L2.6147064101409914,31.26868664855957C2.2751814101409913,31.26868664855957,1.9999864101409912,30.99598664855957,1.9999864101409912,30.65988664855957C1.9999864101409912,30.32358664855957,2.2751814101409913,30.051086648559572,2.6147064101409914,30.051086648559572L4.963206410140991,30.051086648559572L4.963206410140991,29.83098664855957C4.963206410140991,29.494686648559572,5.238406410140991,29.22218664855957,5.577926410140991,29.22218664855957C5.917316410140991,29.22218664855957,6.192516410140991,29.494686648559572,6.192516410140991,29.83098664855957L6.192516410140991,30.051086648559572L10.565306410140991,30.051086648559572L10.565306410140991,29.83098664855957C10.565306410140991,29.494686648559572,10.840496410140991,29.22218664855957,11.180016410140992,29.22218664855957C11.519406410140991,29.22218664855957,11.794736410140992,29.494686648559572,11.794736410140992,29.83098664855957L11.794736410140992,30.051086648559572ZM41.49788641014099,42.78328664855957L36.60458641014099,42.78328664855957L36.60458641014099,40.11808664855957L40.21448641014099,40.11808664855957C40.53138641014099,40.11808664855957,40.788186410140995,39.84578664855957,40.788186410140995,39.50978664855957C40.788186410140995,39.17398664855957,40.53138641014099,38.90168664855957,40.21448641014099,38.90168664855957L36.60458641014099,38.90168664855957L36.60458641014099,37.10978664855957L41.03198641014099,37.10978664855957C41.37138641014099,37.10978664855957,41.64658641014099,36.83708664855957,41.64658641014099,36.50098664855957L41.64658641014099,29.83098664855957C41.64658641014099,29.49478664855957,41.37138641014099,29.22218664855957,41.03198641014099,29.22218664855957L31.14338641014099,29.22218664855957C30.80398641014099,29.22218664855957,30.528686410140992,29.49478664855957,30.528686410140992,29.83098664855957L30.528686410140992,36.46448664855957C30.528686410140992,36.47068664855957,30.53038641014099,36.47658664855957,30.53058641014099,36.48278664855957C30.53038641014099,36.48888664855957,30.528686410140992,36.49468664855957,30.528686410140992,36.50098664855957C30.528686410140992,36.83708664855957,30.80398641014099,37.10978664855957,31.14338641014099,37.10978664855957L35.37518641014099,37.10978664855957L35.37518641014099,38.90168664855957L31.80228641014099,38.90168664855957C31.48548641014099,38.90168664855957,31.22868641014099,39.17398664855957,31.22868641014099,39.50978664855957C31.22868641014099,39.84578664855957,31.48548641014099,40.11808664855957,31.80228641014099,40.11808664855957L35.37518641014099,40.11808664855957L35.37518641014099,42.78328664855957L30.50498641014099,42.78328664855957C30.21508641014099,42.78328664855957,29.979486410140993,43.05538664855957,29.979486410140993,43.39068664855957C29.979486410140993,43.72738664855957,30.21508641014099,43.99968664855957,30.50498641014099,43.99968664855957L41.49788641014099,43.99968664855957C41.77548641014099,43.99968664855957,42.000286410140994,43.72738664855957,42.000286410140994,43.39068664855957C42.000286410140994,43.05538664855957,41.77548641014099,42.78328664855957,41.49788641014099,42.78328664855957ZM27.427586410140993,42.77268664855957C24.43668641014099,42.79218664855957,20.41028641014099,42.81288664855957,17.17968641014099,42.83238664855957L17.17968641014099,30.43898664855957L27.427586410140993,30.43898664855957L27.427586410140993,42.77268664855957ZM31.75778641014099,30.43968664855957L31.75778641014099,35.89218664855957L35.37488641014099,35.89218664855957L35.37488641014099,33.835286648559574L32.95328641014099,33.835286648559574C32.73788641014099,33.835286648559574,32.56338641014099,33.562786648559566,32.56338641014099,33.22648664855957C32.56338641014099,32.89038664855957,32.73788641014099,32.61788664855957,32.95328641014099,32.61788664855957L35.37488641014099,32.61788664855957L35.37488641014099,30.46968664855957C35.37488641014099,30.45938664855957,35.37748641014099,30.44988664855957,35.37798641014099,30.43968664855957L31.75778641014099,30.43968664855957ZM36.60468641014099,35.89218664855957L40.41728641014099,35.89218664855957L40.41728641014099,30.43968664855957L36.60158641014099,30.43968664855957C36.60208641014099,30.44988664855957,36.60468641014099,30.45938664855957,36.60468641014099,30.46968664855957L36.60468641014099,32.61788664855957L39.22468641014099,32.61788664855957C39.43988641014099,32.61788664855957,39.61448641014099,32.89038664855957,39.61448641014099,33.22648664855957C39.61448641014099,33.562786648559566,39.43988641014099,33.835286648559574,39.22468641014099,33.835286648559574L36.60468641014099,33.835286648559574L36.60468641014099,35.89218664855957ZM17.485286410140993,35.066886648559574C17.564686410140993,35.25248664855957,17.746686410140992,35.363986648559575,17.937986410140994,35.363986648559575C18.00198641014099,35.363986648559575,18.06698641014099,35.35168664855957,18.12948641014099,35.32538664855957C18.708386410140992,35.08258664855957,19.20188641014099,34.78828664855957,19.62268641014099,34.47078664855957C20.127486410140992,34.95528664855957,20.670086410140993,35.39858664855957,21.243486410140992,35.79648664855957C21.01848641014099,35.92558664855957,20.790686410140992,36.05018664855957,20.55668641014099,36.16508664855957C19.70128641014099,36.58528664855957,18.790786410140992,36.90518664855957,17.85038641014099,37.11608664855957C17.58558641014099,37.17528664855957,17.419586410140994,37.43598664855957,17.479486410140993,37.69818664855957C17.53118641014099,37.92428664855957,17.733786410140993,38.07758664855957,17.95838641014099,38.07758664855957C17.99438641014099,38.07758664855957,18.03078641014099,38.07368664855957,18.06738641014099,38.06548664855957C19.08378641014099,37.83768664855957,20.06838641014099,37.49168664855957,20.993586410140992,37.03718664855957C21.39858641014099,36.83828664855957,21.790586410140993,36.61868664855957,22.170386410140992,36.381086648559574C23.46928641014099,37.13148664855957,24.882086410140992,37.65858664855957,26.377686410140992,37.94328664855957C26.40908641014099,37.94938664855957,26.440186410140992,37.95218664855957,26.47108641014099,37.95218664855957C26.701986410140993,37.95218664855957,26.907886410140993,37.79028664855957,26.95308641014099,37.55728664855957C27.00438641014099,37.29318664855957,26.82988641014099,37.03808664855957,26.563286410140993,36.98738664855957C25.33108641014099,36.75288664855957,24.15998641014099,36.34058664855957,23.069786410140992,35.76418664855957C23.99098641014099,35.07408664855957,24.82498641014099,34.260786648559574,25.56168641014099,33.32918664855957C25.677586410140993,33.18258664855957,25.69888641014099,32.98328664855957,25.616686410140993,32.81588664855957C25.534286410140993,32.64848664855957,25.36278641014099,32.54228664855957,25.174786410140992,32.54228664855957L21.34068641014099,32.54228664855957C21.735886410140992,31.868186648559572,21.87718641014099,31.35068664855957,21.889786410140992,31.30248664855957C21.95748641014099,31.04288664855957,21.80008641014099,30.77878664855957,21.53818641014099,30.71078664855957C21.27628641014099,30.64278664855957,21.00798641014099,30.79838664855957,20.938386410140993,31.05748664855957C20.91328641014099,31.15098664855957,20.29468641014099,33.35998664855957,17.74628641014099,34.42888664855957C17.49628641014099,34.53378664855957,17.37948641014099,34.81938664855957,17.485286410140993,35.066886648559574ZM14.095686410140992,40.14808664855957L8.993766410140992,40.14808664855957L8.993766410140992,39.25728664855957L13.199386410140992,39.25728664855957C13.53908641014099,39.25728664855957,13.81428641014099,38.98468664855957,13.81428641014099,38.64818664855957L13.81428641014099,33.12958664855957C13.81428641014099,32.793786648559575,13.53908641014099,32.52118664855957,13.199386410140992,32.52118664855957L3.5860164101409913,32.52118664855957C3.2467664101409914,32.52118664855957,2.971566410140991,32.793786648559575,2.971566410140991,33.12958664855957L2.971566410140991,38.64818664855957C2.971566410140991,38.98468664855957,3.2467664101409914,39.25728664855957,3.5860164101409913,39.25728664855957L7.764326410140991,39.25728664855957L7.764326410140991,40.14808664855957L2.6147064101409914,40.14808664855957C2.2751814101409913,40.14808664855957,1.9999864101409912,40.42068664855957,1.9999864101409912,40.75678664855957C1.9999864101409912,41.092986648559574,2.2751814101409913,41.36558664855957,2.6147064101409914,41.36558664855957L7.764326410140991,41.36558664855957L7.764326410140991,43.39108664855957C7.764326410140991,43.72738664855957,8.03951641014099,43.99988664855957,8.37904641014099,43.99988664855957C8.718436410140992,43.99988664855957,8.993766410140992,43.72738664855957,8.993766410140992,43.39108664855957L8.993766410140992,41.36558664855957L14.095686410140992,41.36558664855957C14.435186410140991,41.36558664855957,14.710386410140991,41.092986648559574,14.710386410140991,40.75678664855957C14.710386410140991,40.42068664855957,14.435186410140991,40.14808664855957,14.095686410140992,40.14808664855957ZM24.11328641014099,33.51558664855957C23.51348641014099,34.16058664855957,22.85498641014099,34.73008664855957,22.145586410140993,35.22518664855957C21.50978641014099,34.814486648559566,20.91208641014099,34.34438664855957,20.36128641014099,33.82238664855957C20.461386410140992,33.72028664855957,20.555786410140993,33.61778664855957,20.644086410140993,33.51558664855957L24.11328641014099,33.51558664855957ZM4.201156410140991,38.03998664855957L12.585286410140991,38.03998664855957L12.585286410140991,33.73878664855957L4.201156410140991,33.73878664855957L4.201156410140991,38.03998664855957ZM11.369776410140991,35.280486648559574L5.370736410140991,35.280486648559574C5.144436410140991,35.280486648559574,4.960926410140991,35.55308664855957,4.960926410140991,35.88928664855957C4.960926410140991,36.22538664855957,5.144436410140991,36.49808664855957,5.370736410140991,36.49808664855957L11.369776410140991,36.49808664855957C11.596076410140991,36.49808664855957,11.779586410140992,36.22538664855957,11.779586410140992,35.88928664855957C11.779586410140992,35.55308664855957,11.596076410140991,35.280486648559574,11.369776410140991,35.280486648559574ZM22.95778641014099,39.76988664855957C22.90608641014099,39.75838664855957,22.85508641014099,39.74008664855957,22.805986410140992,39.71448664855957L21.52928641014099,38.85198664855957C21.22878641014099,38.69568664855957,21.11298641014099,38.32768664855957,21.270686410140993,38.02998664855957C21.42848641014099,37.73228664855957,21.80068641014099,37.61768664855957,22.10068641014099,37.77398664855957L23.377386410140993,38.63648664855957C23.677986410140992,38.79278664855957,23.793686410140992,39.16078664855957,23.63588641014099,39.45848664855957C23.503986410140993,39.70748664855957,23.222286410140992,39.82848664855957,22.95778641014099,39.76988664855957ZM20.56928641014099,39.71558664855957L23.87998641014099,40.57318664855957C24.215886410140993,40.62198664855957,24.44828641014099,40.93128664855957,24.398886410140992,41.26388664855957C24.357686410140992,41.54218664855957,24.132286410140992,41.748586648559574,23.86318641014099,41.78018664855957C23.810586410140992,41.78628664855957,23.75638641014099,41.78578664855957,23.70148641014099,41.77778664855957L20.39068641014099,40.92018664855957C20.05478641014099,40.87128664855957,19.822486410140993,40.56198664855957,19.87178641014099,40.22938664855957C19.92108641014099,39.89678664855957,20.233986410140993,39.66648664855957,20.56928641014099,39.71558664855957Z" fill-rule="evenodd" fill="#FFC14E" fill-opacity="1"/></g></g></g></g></svg>