<?xml version="1.0" encoding="UTF-8"?>
<svg width="24px" height="24px" viewBox="0 0 24 24" version="1.1" xmlns="http://www.w3.org/2000/svg" xmlns:xlink="http://www.w3.org/1999/xlink">
    <title>phone</title>
    <g id="正稿" stroke="none" stroke-width="1" fill="none" fill-rule="evenodd">
        <g id="官网-全屏" transform="translate(-248.000000, -5703.000000)">
            <g id="编组-27备份" transform="translate(0.000000, 5619.000000)">
                <g id="编组-26" transform="translate(248.000000, 32.000000)">
                    <g id="编组-29" transform="translate(0.000000, 44.000000)">
                        <g id="编组-28" transform="translate(0.000000, 8.000000)">
                            <rect id="矩形" x="0" y="0" width="24" height="24"></rect>
                            <g id="编组" transform="translate(2.000000, 2.000000)" fill="#FFFFFF">
                                <path d="M2.35676486,0.637747001 C2.79918424,0.195959234 3.40989692,-0.034725694 4.03388627,0.00424675277 C4.65787561,0.0432191996 5.23514354,0.348101726 5.61916269,0.84150629 L7.86284242,3.72413771 C8.27407954,4.25291181 8.419075,4.94169321 8.25658009,5.59172285 L7.5728515,8.32934765 C7.5014583,8.61775106 7.5858157,8.92250377 7.79534454,9.13313429 L10.8664984,12.2045243 C11.077375,12.4145041 11.3827006,12.4989018 11.6714731,12.4270345 L14.4076375,11.7432533 C15.0575708,11.5816967 15.7456932,11.7267939 16.275079,12.1370212 L19.1574887,14.3796235 C20.1937062,15.1859102 20.2887033,16.71723 19.3612323,17.6435223 L18.0687728,18.9360812 C17.1438018,19.8611234 15.7613451,20.2673919 14.4726354,19.8136212 C11.1735791,18.6542966 8.17850653,16.7656748 5.71040983,14.2883693 C3.23345299,11.8204429 1.34498624,8.82558284 0.185582855,5.52671988 C-0.266902974,4.23916118 0.139334303,2.8553481 1.06430534,1.93030593 L2.35676486,0.637747001 Z" id="路径"></path>
                            </g>
                        </g>
                    </g>
                </g>
            </g>
        </g>
    </g>
</svg>