<svg xmlns="http://www.w3.org/2000/svg" xmlns:xlink="http://www.w3.org/1999/xlink" fill="none" version="1.1" width="24" height="24" viewBox="0 0 24 24"><g><g></g><g><path d="M16.101599999999998,17.162300000000002Q15.5676,17.604300000000002,14.9655,17.948Q14.3635,18.291600000000003,13.7113,18.526600000000002Q13.059,18.761499999999998,12.37614,18.880699999999997Q11.69324,19,11,19Q10.803609999999999,19,10.60746,18.9904Q10.41131,18.9807,10.21586,18.9615Q10.02042,18.9422,9.82616,18.9134Q9.63189,18.8846,9.43928,18.8463Q9.24666,18.808,9.05616,18.760199999999998Q8.865649999999999,18.7125,8.67772,18.6555Q8.48979,18.5985,8.30488,18.532400000000003Q8.11997,18.4662,7.93853,18.391Q7.75709,18.3159,7.57956,18.2319Q7.40203,18.1479,7.22883,18.0554Q7.05563,17.9628,6.88718,17.861800000000002Q6.71873,17.7609,6.55544,17.6518Q6.39215,17.5426,6.2344100000000005,17.4257Q6.07666,17.3087,5.92485,17.1841Q5.77304,17.0595,5.62753,16.927599999999998Q5.48201,16.7957,5.34315,16.6569Q5.20428,16.518,5.07239,16.372500000000002Q4.9405,16.227,4.81592,16.0751Q4.69133,15.9233,4.57434,15.7656Q4.45735,15.6079,4.3482400000000005,15.4446Q4.23914,15.2813,4.13817,15.1128Q4.03721,14.9444,3.94463,14.7712Q3.8520529999999997,14.598,3.7680860000000003,14.4204Q3.684118,14.2429,3.608964,14.0615Q3.5338089999999998,13.88,3.467647,13.6951Q3.4014860000000002,13.5102,3.344477,13.3223Q3.2874689999999998,13.1343,3.23975,12.94384Q3.192031,12.75334,3.153718,12.56072Q3.115404,12.36811,3.0865879,12.17384Q3.0577717,11.97958,3.0385222,11.78414Q3.0192727,11.58869,3.00963635,11.39254Q3,11.19639,3,11Q3,10.803609999999999,3.00963635,10.60746Q3.0192727,10.41131,3.0385222,10.21586Q3.0577717,10.02042,3.0865879,9.82616Q3.115404,9.63189,3.153718,9.43928Q3.192031,9.24666,3.23975,9.05616Q3.2874689999999998,8.865649999999999,3.344477,8.67772Q3.4014860000000002,8.48979,3.467647,8.30488Q3.5338089999999998,8.11997,3.608964,7.93853Q3.684118,7.75709,3.7680860000000003,7.57956Q3.8520529999999997,7.40203,3.94463,7.22883Q4.03721,7.05563,4.13817,6.88718Q4.23914,6.71873,4.3482400000000005,6.55544Q4.45735,6.39215,4.57434,6.2344100000000005Q4.69133,6.07666,4.81592,5.92485Q4.9405,5.77304,5.07239,5.62753Q5.20428,5.48201,5.34315,5.34315Q5.48201,5.20428,5.62753,5.07239Q5.77304,4.9405,5.92485,4.81592Q6.07666,4.69133,6.2344100000000005,4.57434Q6.39215,4.45735,6.55544,4.3482400000000005Q6.71873,4.23914,6.88718,4.13817Q7.05563,4.03721,7.22883,3.94463Q7.40203,3.8520529999999997,7.57956,3.7680860000000003Q7.75709,3.684118,7.93853,3.608964Q8.11997,3.5338089999999998,8.30488,3.467647Q8.48979,3.4014860000000002,8.67772,3.344477Q8.865649999999999,3.2874689999999998,9.05616,3.23975Q9.24666,3.192031,9.43928,3.153718Q9.63189,3.115404,9.82616,3.0865879Q10.02042,3.0577717,10.21586,3.0385222Q10.41131,3.0192727,10.60746,3.00963635Q10.803609999999999,3,11,3Q11.19639,3,11.39254,3.00963635Q11.58869,3.0192727,11.78414,3.0385222Q11.97958,3.0577717,12.17384,3.0865879Q12.36811,3.115404,12.56072,3.153718Q12.75334,3.192031,12.94384,3.23975Q13.1343,3.2874689999999998,13.3223,3.344477Q13.5102,3.4014860000000002,13.6951,3.467647Q13.88,3.5338089999999998,14.0615,3.608964Q14.2429,3.684118,14.4204,3.7680860000000003Q14.598,3.8520529999999997,14.7712,3.94463Q14.9444,4.03721,15.1128,4.13817Q15.2813,4.23914,15.4446,4.3482400000000005Q15.6079,4.45735,15.7656,4.57434Q15.9233,4.69133,16.0751,4.81592Q16.227,4.9405,16.372500000000002,5.07239Q16.518,5.20428,16.6569,5.34315Q16.7957,5.48201,16.927599999999998,5.62753Q17.0595,5.77304,17.1841,5.92485Q17.3087,6.07666,17.4257,6.2344100000000005Q17.5426,6.39215,17.6518,6.55544Q17.7609,6.71873,17.861800000000002,6.88718Q17.9628,7.05563,18.0554,7.22883Q18.1479,7.40203,18.2319,7.57956Q18.3159,7.75709,18.391,7.93853Q18.4662,8.11997,18.532400000000003,8.30488Q18.5985,8.48979,18.6555,8.67772Q18.7125,8.865649999999999,18.760199999999998,9.05616Q18.808,9.24666,18.8463,9.43928Q18.8846,9.63189,18.9134,9.82616Q18.9422,10.02042,18.9615,10.21586Q18.9807,10.41131,18.9904,10.60746Q19,10.803609999999999,19,11Q19,11.69324,18.880699999999997,12.37614Q18.761499999999998,13.059,18.526600000000002,13.7113Q18.291600000000003,14.3635,17.948,14.9655Q17.604300000000002,15.5676,17.162300000000002,16.101599999999998L20.5303,19.4697C20.8232,19.7626,20.8232,20.2374,20.5303,20.5303C20.2374,20.8232,19.7626,20.8232,19.4697,20.5303L16.101599999999998,17.162300000000002ZM17.5,11Q17.5,11.15957,17.4922,11.31894Q17.484299999999998,11.47831,17.4687,11.63711Q17.4531,11.79591,17.4296,11.95375Q17.4062,12.11159,17.3751,12.26809Q17.344,12.42459,17.3052,12.57937Q17.2664,12.73415,17.220100000000002,12.88685Q17.1738,13.0395,17.119999999999997,13.1898Q17.0663,13.34,17.005200000000002,13.4874Q16.944200000000002,13.6349,16.8759,13.7791Q16.8077,13.9234,16.7325,14.0641Q16.6573,14.2048,16.575200000000002,14.3417Q16.4932,14.4785,16.404600000000002,14.6112Q16.3159,14.7439,16.2208,14.872Q16.125799999999998,15.0002,16.0246,15.1236Q15.9233,15.2469,15.8162,15.3651Q15.709,15.4834,15.5962,15.5962Q15.4834,15.709,15.3651,15.8162Q15.2469,15.9233,15.1236,16.0246Q15.0002,16.125799999999998,14.872,16.2208Q14.7439,16.3159,14.6112,16.404600000000002Q14.4785,16.4932,14.3417,16.575200000000002Q14.2048,16.6573,14.0641,16.7325Q13.9234,16.8077,13.7791,16.8759Q13.6349,16.944200000000002,13.4874,17.005200000000002Q13.34,17.0663,13.1898,17.119999999999997Q13.0395,17.1738,12.88685,17.220100000000002Q12.73415,17.2664,12.57937,17.3052Q12.42459,17.344,12.26809,17.3751Q12.11159,17.4062,11.95375,17.4296Q11.79591,17.4531,11.63711,17.4687Q11.47831,17.484299999999998,11.31894,17.4922Q11.15957,17.5,11,17.5Q10.84043,17.5,10.68106,17.4922Q10.52169,17.484299999999998,10.36289,17.4687Q10.20409,17.4531,10.04625,17.4296Q9.88841,17.4062,9.73191,17.3751Q9.57541,17.344,9.42063,17.3052Q9.26584,17.2664,9.113150000000001,17.220100000000002Q8.96045,17.1738,8.81021,17.119999999999997Q8.659980000000001,17.0663,8.51256,17.005200000000002Q8.36514,16.944200000000002,8.22089,16.8759Q8.076640000000001,16.8077,7.93592,16.7325Q7.7952,16.6573,7.65833,16.575200000000002Q7.52147,16.4932,7.38879,16.404600000000002Q7.25612,16.3159,7.12795,16.2208Q6.99979,16.125799999999998,6.8764400000000006,16.0246Q6.7531,15.9233,6.634869999999999,15.8162Q6.516640000000001,15.709,6.40381,15.5962Q6.290979999999999,15.4834,6.18382,15.3651Q6.07666,15.2469,5.975429999999999,15.1236Q5.8742,15.0002,5.77915,14.872Q5.6841,14.7439,5.59545,14.6112Q5.5068,14.4785,5.42476,14.3417Q5.3427299999999995,14.2048,5.26751,14.0641Q5.19229,13.9234,5.12407,13.7791Q5.0558499999999995,13.6349,4.99478,13.4874Q4.93372,13.34,4.8799600000000005,13.1898Q4.82621,13.0395,4.77989,12.88685Q4.73357,12.73415,4.6948,12.57937Q4.6560299999999994,12.42459,4.6249,12.26809Q4.59377,12.11159,4.5703499999999995,11.95375Q4.54694,11.79591,4.5313,11.63711Q4.5156600000000005,11.47831,4.50783,11.31894Q4.5,11.15957,4.5,11Q4.5,10.84043,4.50783,10.68106Q4.5156600000000005,10.52169,4.5313,10.36289Q4.54694,10.20409,4.5703499999999995,10.04625Q4.59377,9.88841,4.6249,9.73191Q4.6560299999999994,9.57541,4.6948,9.42063Q4.73357,9.26584,4.77989,9.113150000000001Q4.82621,8.96045,4.8799600000000005,8.81021Q4.93372,8.659980000000001,4.99478,8.51256Q5.0558499999999995,8.36514,5.12407,8.22089Q5.19229,8.076640000000001,5.26751,7.93592Q5.3427299999999995,7.7952,5.42476,7.65833Q5.5068,7.52147,5.59545,7.38879Q5.6841,7.25612,5.77915,7.12795Q5.8742,6.99979,5.975429999999999,6.8764400000000006Q6.07666,6.7531,6.18382,6.634869999999999Q6.290979999999999,6.516640000000001,6.40381,6.40381Q6.516640000000001,6.290979999999999,6.634869999999999,6.18382Q6.7531,6.07666,6.8764400000000006,5.975429999999999Q6.99979,5.8742,7.12795,5.77915Q7.25612,5.6841,7.38879,5.59545Q7.52147,5.5068,7.65833,5.42476Q7.7952,5.3427299999999995,7.93592,5.26751Q8.07665,5.19229,8.22089,5.12407Q8.36514,5.0558499999999995,8.51256,4.99478Q8.659980000000001,4.93372,8.81021,4.8799600000000005Q8.96045,4.82621,9.113150000000001,4.77989Q9.26584,4.73357,9.42063,4.6948Q9.57541,4.6560299999999994,9.73191,4.6249Q9.88841,4.59377,10.04625,4.5703499999999995Q10.20409,4.54694,10.36289,4.5313Q10.52169,4.5156600000000005,10.68106,4.50783Q10.84043,4.5,11,4.5Q11.15957,4.5,11.31894,4.50783Q11.47831,4.5156600000000005,11.63711,4.5313Q11.79591,4.54694,11.95375,4.5703499999999995Q12.11159,4.59377,12.26809,4.6249Q12.42459,4.6560299999999994,12.57937,4.6948Q12.73415,4.73357,12.88685,4.77989Q13.0395,4.82621,13.1898,4.8799600000000005Q13.34,4.93372,13.4874,4.99478Q13.6349,5.0558499999999995,13.7791,5.12407Q13.9234,5.19229,14.0641,5.26751Q14.2048,5.3427299999999995,14.3417,5.42476Q14.4785,5.5068,14.6112,5.59545Q14.7439,5.6841,14.872,5.77915Q15.0002,5.8742,15.1236,5.975429999999999Q15.2469,6.07666,15.3651,6.18382Q15.4834,6.290979999999999,15.5962,6.40381Q15.709,6.516640000000001,15.8162,6.634869999999999Q15.9233,6.7531,16.0246,6.8764400000000006Q16.125799999999998,6.99979,16.2208,7.12795Q16.3159,7.25612,16.404600000000002,7.38879Q16.4932,7.52147,16.575200000000002,7.65833Q16.6573,7.7952,16.7325,7.93592Q16.8077,8.07665,16.8759,8.22089Q16.944200000000002,8.36514,17.005200000000002,8.51256Q17.0663,8.659980000000001,17.119999999999997,8.81021Q17.1738,8.96045,17.220100000000002,9.113150000000001Q17.2664,9.26584,17.3052,9.42063Q17.344,9.57541,17.3751,9.73191Q17.4062,9.88841,17.4296,10.04625Q17.4531,10.20409,17.4687,10.36289Q17.484299999999998,10.52169,17.4922,10.68106Q17.5,10.84043,17.5,11Z" fill-rule="evenodd" fill="#FFFFFF" fill-opacity="0.6499999761581421"/></g></g></svg>