<svg xmlns="http://www.w3.org/2000/svg" xmlns:xlink="http://www.w3.org/1999/xlink" fill="none" version="1.1" width="28" height="14" viewBox="0 0 28 14"><g><rect x="0" y="0" width="28" height="14" rx="2" fill="#FFC14E" fill-opacity="1"/><g><path d="M9.26,2.83Q11.17,4.96,13.64,6.19L13.25,6.88Q10.79,5.59,9,3.47Q7.38,5.45,4.71,6.89L4.33,6.2Q6.98,4.85,8.74,2.83L9.26,2.83ZM6.5600000000000005,5.9L11.469999999999999,5.9L11.469999999999999,6.58L6.5600000000000005,6.58L6.5600000000000005,5.9ZM4.99,7.91L13.03,7.91L13.03,8.61L8.32,8.61Q7.6,10.02,6.58,11.07Q9.09,10.93,11.24,10.64Q10.64,9.86,10.120000000000001,9.28L10.68,8.92Q12.06,10.46,12.78,11.57L12.18,11.99Q11.91,11.57,11.629999999999999,11.17Q9.280000000000001,11.55,5.71,11.76L5.51,11.13Q5.77,11.06,5.89,10.94Q6.88,9.8,7.5,8.61L4.99,8.61L4.99,7.91ZM22.24,6.45L22.24,10.09L21.51,10.09L21.51,7.11L16.55,7.11L16.55,10.25L15.82,10.25L15.82,6.45L22.24,6.45ZM16.34,3.19L21.66,3.19L21.66,5.66L16.34,5.66L16.34,3.19ZM20.94,5.01L20.94,3.85L17.05,3.85L17.05,5.01L20.94,5.01ZM19.46,7.83Q19.25,10.03,18.53,10.81Q17.75,11.75,14.96,12L14.68,11.35Q17.119999999999997,11.2,17.91,10.38Q18.61,9.6,18.73,7.77L19.46,7.83ZM19.73,10.08Q21.6,10.65,23.22,11.48L22.84,12.08Q21.12,11.15,19.35,10.65L19.73,10.08Z" fill="#1A1A1A" fill-opacity="1"/></g></g></svg>