<svg xmlns="http://www.w3.org/2000/svg" xmlns:xlink="http://www.w3.org/1999/xlink" fill="none" version="1.1" width="14.8486328125" height="16" viewBox="0 0 14.8486328125 16"><defs><linearGradient x1="0.24575364589691162" y1="0.04174342378973961" x2="0.5752116612481227" y2="0.9785704945496643" id="master_svg0_73_4341"><stop offset="0%" stop-color="#F4D695" stop-opacity="1"/><stop offset="100%" stop-color="#F3C670" stop-opacity="1"/></linearGradient><filter id="master_svg1_95_06242/88_6203" filterUnits="objectBoundingBox" color-interpolation-filters="sRGB" x="0" y="0" width="1" height="1"><feFlood flood-opacity="0" result="BackgroundImageFix"/><feBlend mode="normal" in="SourceGraphic" in2="BackgroundImageFix" result="shape"/><feGaussianBlur in="BackgroundImageFix" stdDeviation="0.5613720417022705"/><feComposite in2="SourceAlpha" operator="in" result="effect1_foregroundBlur"/><feBlend mode="normal" in="SourceGraphic" in2="effect1_foregroundBlur" result="shape"/></filter><filter id="master_svg2_95_06242/88_6205" filterUnits="objectBoundingBox" color-interpolation-filters="sRGB" x="-0.29079663140419354" y="-0.2451506645470187" width="1.581593262808387" height="1.4903013290940375"><feFlood flood-opacity="0" result="BackgroundImageFix"/><feColorMatrix in="SourceAlpha" type="matrix" values="0 0 0 0 0 0 0 0 0 0 0 0 0 0 0 0 0 0 127 0"/><feOffset dy="0" dx="0"/><feGaussianBlur stdDeviation="0.41277357935905457"/><feColorMatrix type="matrix" values="0 0 0 0 0.9333333373069763 0 0 0 0 0.5686274766921997 0 0 0 0 0.1921568661928177 0 0 0 0.40116915106773376 0"/><feBlend mode="normal" in2="BackgroundImageFix" result="effect1_dropShadow"/><feBlend mode="normal" in="SourceGraphic" in2="effect1_dropShadow" result="shape"/></filter></defs><g><g><path d="M7.01715,16C10.8926,16,14.0343,12.8583,14.0343,8.98285C14.0343,7.67972,13.6326,5.25011,12.786,4.4379C12.0098,3.69312,11.4838,5.75949,11.078,5.06083C10.0033,3.2104,7.22319,-0.995333,5.98393,0.215383C4.31975,1.84122,2.70548,3.1799,1.78342,4.4379C0.861368,5.69591,0,7.04063,0,8.98285C0,12.8583,3.14169,16,7.01715,16Z" fill-rule="evenodd" fill="url(#master_svg0_73_4341)" fill-opacity="1"/></g><g filter="url(#master_svg1_95_06242/88_6203)"><ellipse cx="12.79032850265503" cy="13.621363162994385" rx="2.0581507682800293" ry="2.0638680458068848" fill="#FFE2A4" fill-opacity="0.3240821659564972"/></g><g filter="url(#master_svg2_95_06242/88_6205)"><path d="M7.402883041381836,8.542848312683105L7.551783041381836,7.277168312683106C7.637013041381836,6.552702312683105,7.679453041381835,6.177710312683105,7.561633041381835,6.030415312683106C7.4653930413818355,5.910093912683106,7.311923041381836,5.8415470126831055,7.158083041381836,5.850179195683105C6.969763041381836,5.8607465126831055,6.718833041381836,6.142617312683106,6.236203041381836,6.689598312683105L4.517987041381836,8.636908312683106C4.166774041381836,9.034948312683106,3.9861817313818357,9.241838312683106,3.984107673381836,9.410858312683105C3.9823870613818357,9.551078312683106,4.044108541381836,9.687848312683105,4.150387041381836,9.779328312683106C4.278498041381836,9.889608312683105,4.553118041381836,9.891078312683106,5.083953041381836,9.891078312683106L6.243093041381836,9.891078312683106L6.0941930413818355,11.156748312683106C6.008963041381836,11.881218312683107,5.966523041381836,12.256208312683105,6.084343041381835,12.403508312683105C6.180583041381836,12.523828312683104,6.334053041381836,12.592368312683107,6.487893041381836,12.583738312683106C6.6762130413818355,12.573178312683105,6.927143041381836,12.291298312683105,7.409773041381836,11.744318312683106L9.127993041381835,9.797018312683106C9.479203041381837,9.398968312683106,9.659793041381835,9.192078312683105,9.661873041381835,9.023058312683105C9.663593041381837,8.882838312683106,9.601873041381836,8.746068312683105,9.495593041381836,8.654588312683106C9.367483041381835,8.544318312683105,9.092863041381836,8.542848312683105,8.562023041381835,8.542848312683105L7.402883041381836,8.542848312683105Z" fill-rule="evenodd" fill="#4B453F" fill-opacity="1"/></g></g></svg>