<?xml version="1.0" encoding="UTF-8"?>
<svg width="16px" height="16px" viewBox="0 0 16 16" version="1.1" xmlns="http://www.w3.org/2000/svg" xmlns:xlink="http://www.w3.org/1999/xlink">
    <title>time</title>
    <g id="正稿" stroke="none" stroke-width="1" fill="none" fill-rule="evenodd">
        <g id="官网-全屏" transform="translate(-248.000000, -5745.000000)">
            <g id="编组-27备份" transform="translate(0.000000, 5619.000000)">
                <g id="编组-26" transform="translate(248.000000, 32.000000)">
                    <g id="编组-31" transform="translate(0.000000, 92.000000)">
                        <g id="编组-30" transform="translate(0.000000, 2.000000)">
                            <rect id="矩形" x="0" y="0" width="16" height="16"></rect>
                            <g id="编组" opacity="0.449999988" transform="translate(1.333333, 1.000000)" fill="#FFFFFF" fill-rule="nonzero">
                                <path d="M6.66666667,0 C3,0 0,3 0,6.66666667 C0,10.3333333 3,13.3333333 6.66666667,13.3333333 C10.3333333,13.3333333 13.3333333,10.3333333 13.3333333,6.66666667 C13.3333333,3 10.3333333,0 6.66666667,0 M7,7.33333333 L6,7.33333333 L6,3.33333333 L7,3.33333333 L7,6.2 L9.46666667,4.8 L10,5.66666667 L7,7.33333333 Z" id="形状"></path>
                            </g>
                        </g>
                    </g>
                </g>
            </g>
        </g>
    </g>
</svg>