<?xml version="1.0" encoding="UTF-8"?>
<svg width="1024px" height="1024px" viewBox="0 0 1024 1024" version="1.1" xmlns="http://www.w3.org/2000/svg" xmlns:xlink="http://www.w3.org/1999/xlink">
    <title>8924CA96-31B6-4ACD-9C61-DC86E55969B8@0.0x</title>
    <g id="页面-1" stroke="none" stroke-width="1" fill="none" fill-rule="evenodd">
        <g id="启动图标">
            <rect id="矩形备份-48" fill="#FFB43B" x="0" y="0" width="1024" height="1024"></rect>
            <path d="M639.00499,354 C651.155255,354 661.00499,363.849736 661.00499,376 L661.00499,722 C661.00499,734.150264 651.155255,744 639.00499,744 C626.854726,744 617.00499,734.150264 617.00499,722 L617.00499,376 C617.00499,363.849736 626.854726,354 639.00499,354 Z M639.00499,280 C651.155255,280 661.00499,289.849736 661.00499,302 C661.00499,314.150264 651.155255,324 639.00499,324 C626.854726,324 617.00499,314.150264 617.00499,302 C617.00499,289.849736 626.854726,280 639.00499,280 Z M555.00499,354 C567.155255,354 577.00499,363.849736 577.00499,376 L577.00499,722 C577.00499,734.150264 567.155255,744 555.00499,744 C542.854726,744 533.00499,734.150264 533.00499,722 L533.00499,376 C533.00499,363.849736 542.854726,354 555.00499,354 Z M555.00499,280 C567.155255,280 577.00499,289.849736 577.00499,302 C577.00499,314.150264 567.155255,324 555.00499,324 C542.854726,324 533.00499,314.150264 533.00499,302 C533.00499,289.849736 542.854726,280 555.00499,280 Z M471.00499,354 C483.155255,354 493.00499,363.849736 493.00499,376 L493.00499,722 C493.00499,734.150264 483.155255,744 471.00499,744 C458.854726,744 449.00499,734.150264 449.00499,722 L449.00499,376 C449.00499,363.849736 458.854726,354 471.00499,354 Z M471.00499,280 C483.155255,280 493.00499,289.849736 493.00499,302 C493.00499,314.150264 483.155255,324 471.00499,324 C458.854726,324 449.00499,314.150264 449.00499,302 C449.00499,289.849736 458.854726,280 471.00499,280 Z M387.00499,354 C399.155255,354 409.00499,363.849736 409.00499,376 L409.00499,722 C409.00499,734.150264 399.155255,744 387.00499,744 C374.854726,744 365.00499,734.150264 365.00499,722 L365.00499,376 C365.00499,363.849736 374.854726,354 387.00499,354 Z M387.00499,280 C399.155255,280 409.00499,289.849736 409.00499,302 C409.00499,314.150264 399.155255,324 387.00499,324 C374.854726,324 365.00499,314.150264 365.00499,302 C365.00499,289.849736 374.854726,280 387.00499,280 Z M219,279.995213 C249.35761,279.995213 275.299121,301.867988 280.428516,331.789114 L346.683683,718.273182 C348.73666,730.248749 340.692812,741.621132 328.717245,743.674109 C316.741678,745.727087 305.369295,737.683239 303.316317,725.707672 L285.878445,623.995213 L152.120445,623.995213 L134.683683,725.707672 C132.630705,737.683239 121.258322,745.727087 109.282755,743.674109 C97.3071877,741.621132 89.2633397,730.248749 91.3163174,718.273182 L157.571484,331.789114 C162.700879,301.867988 188.64239,279.995213 219,279.995213 Z M219,323.995213 C210.074286,323.995213 202.446989,330.426225 200.938849,339.223604 L159.662445,579.995213 L278.336445,579.995213 L237.061151,339.223604 C235.553011,330.426225 227.925714,323.995213 219,323.995213 Z M806.5,279.995213 C836.767821,279.995213 862.626965,301.815925 867.717748,331.652562 L933.686596,718.290219 C935.730165,730.267395 927.677384,741.633455 915.700208,743.677023 C903.723032,745.720592 892.356972,737.667811 890.313404,725.690635 L824.344556,339.052978 C822.860627,330.355802 815.322863,323.995213 806.5,323.995213 C797.677137,323.995213 790.139373,330.355802 788.655444,339.052978 L722.686596,725.690635 C720.643028,737.667811 709.276968,745.720592 697.299792,743.677023 C685.322616,741.633455 677.269835,730.267395 679.313404,718.290219 L745.282252,331.652562 C750.373035,301.815925 776.232179,279.995213 806.5,279.995213 Z" id="形状结合" fill="#1F1607"></path>
        </g>
    </g>
</svg>